<?xml version="1.0" encoding="UTF-8" standalone="no"?>
<svg
   xmlns:dc="http://purl.org/dc/elements/1.1/"
   xmlns:cc="http://creativecommons.org/ns#"
   xmlns:rdf="http://www.w3.org/1999/02/22-rdf-syntax-ns#"
   xmlns:svg="http://www.w3.org/2000/svg"
   xmlns="http://www.w3.org/2000/svg"
   xmlns:sodipodi="http://sodipodi.sourceforge.net/DTD/sodipodi-0.dtd"
   xmlns:inkscape="http://www.inkscape.org/namespaces/inkscape"
   width="1440"
   height="320"
   viewBox="0 0 380.99999 84.666669"
   version="1.1"
   id="svg8"
   inkscape:version="1.0 (6e3e5246a0, 2020-05-07)"
   sodipodi:docname="contact-breaker.svg">
  <defs
     id="defs2" />
  <sodipodi:namedview
     id="base"
     pagecolor="#ffffff"
     bordercolor="#666666"
     borderopacity="1.0"
     inkscape:pageopacity="0.0"
     inkscape:pageshadow="2"
     inkscape:zoom="0.49497475"
     inkscape:cx="366.83804"
     inkscape:cy="443.55331"
     inkscape:document-units="mm"
     inkscape:current-layer="layer1"
     inkscape:document-rotation="0"
     showgrid="false"
     units="px"
     inkscape:pagecheckerboard="true"
     inkscape:window-width="1366"
     inkscape:window-height="709"
     inkscape:window-x="0"
     inkscape:window-y="31"
     inkscape:window-maximized="1" />
  <metadata
     id="metadata5">
    <rdf:RDF>
      <cc:Work
         rdf:about="">
        <dc:format>image/svg+xml</dc:format>
        <dc:type
           rdf:resource="http://purl.org/dc/dcmitype/StillImage" />
        <dc:title />
      </cc:Work>
    </rdf:RDF>
  </metadata>
  <g
     inkscape:label="Layer 1"
     inkscape:groupmode="layer"
     id="layer1">
    <path
       id="path1672"
       d="m -60.873852,1.7004818 c 0,0 52.0492904,-3.6099537 68.1322323,12.5365252 16.0829447,16.146484 19.5160057,-1.16464 40.3580667,6.840707 20.842065,8.005344 9.481274,21.143359 41.539077,15.235161 32.057816,-5.908199 70.618166,-4.19762 88.794446,0.135477 18.17629,4.3331 57.01745,5.178316 75.25567,-5.340448 18.23822,-10.518762 95.71816,-6.861553 95.71816,-6.861553 0,0 19.4489,2.022311 30.94124,-14.7885644 11.49233,-16.8108676 11.1314,15.8925194 11.1314,15.8925194 L 386.00136,159.59622 136.21678,144.93267 -76.631126,99.867353 Z"
       style="fill:#1e1e21;fill-opacity:1;stroke:none;stroke-width:0.282004px;stroke-linecap:butt;stroke-linejoin:miter;stroke-opacity:1" />
    <path
       style="fill:#19191c;fill-opacity:1;stroke:none;stroke-width:0.303175px;stroke-linecap:butt;stroke-linejoin:miter;stroke-opacity:1"
       d="m -68.922482,37.037509 100.40276,0.08915 c 0,0 12.91698,-0.963273 18.27184,9.415135 5.35485,10.378405 135.303612,-0.291119 135.303612,-0.291119 0,0 13.40463,-0.806915 24.70104,8.94392 11.2964,9.750835 67.69203,-4.932887 67.69203,-4.932887 0,0 79.32972,-2.12553 95.4927,8.77774 16.16299,10.903273 43.91532,-3.123401 43.91532,-3.123401 l 23.33686,-2.107081 4.13484,62.811504 -314.92527,-29.942769 c 0,0 -251.98199,-20.698079 -219.960424,-29.459467 32.021566,-8.761388 21.634692,-20.180725 21.634692,-20.180725 z"
       id="path839" />
    <path
       style="fill:#141417;fill-opacity:1;stroke:none;stroke-width:0;stroke-linecap:butt;stroke-linejoin:miter;stroke-miterlimit:4;stroke-dasharray:none;stroke-opacity:1"
       d="M -1.1966208,62.351193 C 31.20508,56.114458 45.560167,55.757003 56.622767,60.188361 c 11.062597,4.431358 14.762617,16.90741 37.372533,15.171555 22.60992,-1.735857 25.26129,-6.543124 41.28785,-7.141673 16.02657,-0.598545 60.91881,8.961975 81.96854,4.763783 21.04972,-4.198191 59.55147,-8.730411 78.59555,-6.082985 19.04404,2.647426 58.24201,22.544749 69.06514,12.717248 10.82312,-9.827508 2.93859,-20.741928 21.10724,-25.602017 18.16864,-4.860086 -4.22556,76.500608 -4.22556,76.500608 L -20.641505,118.3883 Z"
       id="path10" />
  </g>
</svg>
