<svg version="1" xmlns="http://www.w3.org/2000/svg" width="933.333" height="933.333" viewBox="0 0 700.000000 700.000000"><path d="M334 .6c-35.6 2.3-64.5 7.7-94.2 17.4-12.2 4-39.1 15-42.2 17.3-1.4 1.1-.4 2.4 8.7 11.5l10.4 10.4 11.9-5.8c9.6-4.7 13.1-5.9 18.2-6.2 10.6-.7 19.3 4.2 23.7 13.4 2.1 4.5 2.2 7.9.9 30.4-1 15.4-.3 45.6 1.1 49.9.4 1.5-1.3 3.3-7.7 8.4-11.5 9-120.3 118.5-126 126.7-14 20.3-19.3 36.9-19.7 61-.4 26.8 6.5 48.5 21.8 68.6 9 11.9 83.5 85.6 95.1 94.1 12.3 9 22.7 15.3 32.1 19.7l7.6 3.5.7 5.5c3.3 28.2 25 52.5 54.2 60.7 11 3.2 27.7 3.2 38.7.1 29.3-8.3 51-32.6 54.4-60.9.6-5.3.5-5.6-1.3-4.9-22.8 9.4-48.9 14.6-72.8 14.6-19.1 0-36.2-5.7-53.9-17.9-8.3-5.8-22.4-19.7-29.5-29.1-10.8-14.3-53.4-79.4-57-87.2-17.9-37.6-18.2-88-.8-126.2 2.9-6.3 4.3-8 11.7-14.1 4.6-3.8 15.9-14.3 25.1-23.2 17.7-17.4 21-19.6 31.7-21.4 7.1-1.1 14.5.1 21.7 3.6 9.3 4.5 12.9 9.4 27.9 37.7 14.7 27.6 16.4 29.8 23.1 29.8 6.5 0 8.8-2.9 22.8-29.5 11.1-21.1 14.1-26 19.2-31.1 7.5-7.7 14.4-10.6 25.4-10.6 13.4 0 16.6 1.8 36.8 21.4 35.6 34.5 59.8 51.6 105.2 74.3 11.8 5.9 21.6 10.8 21.8 11 .2.1.3 6.3.2 13.6 0 15.8-2.1 27.5-7.3 40.3l-3.5 8.7 3.7-.6c6.9-1.1 17.5-.8 21.2.8 5.5 2.3 10.4 7.2 12.9 12.9 3.6 8.5 2.6 14-5.7 30.6-18.6 37-44.1 69-75.3 94.3l-4.4 3.5 6.2 3.8c24.2 14.7 44.9 37.1 57.6 62.5l4.8 9.4 6.5-6.4c15.5-15.3 35.9-40.9 48.7-61.4 24-38.3 41.6-84.7 48.5-128.5 3.6-22.5 4.4-33.2 4.4-57.5 0-34.3-3.6-61.2-12.3-92.9-21.7-79-71.7-148.8-140.1-195.6l-11.7-8 4.5 17.8c12.4 49.2 26.3 114 26.3 122.4 0 14.4-4.9 23.9-20.3 40.2l-11.2 11.9-41.2-41.9c-22.6-23-45-45.3-49.7-49.4-5.4-4.7-8.6-8.2-8.6-9.5 0-3.9 7.9-25.4 13.3-36.1 10.6-21 24.5-40 44.6-60.7L504.3 36l-8.4-3.9C462.3 16.6 427.6 7 389 2.6c-12.7-1.5-45-2.7-55-2z"/><path d="M153.3 60.9c-32.8 22.4-65.8 54.5-87.5 85.2-22.6 32-41 69.7-51.3 104.9-21.9 75.5-18.2 154.8 10.6 228.5 9.6 24.7 28.3 57.9 44.8 79.8 8.7 11.6 24 29.3 32.5 37.6l6.5 6.5 2-4.8c9.8-22.6 32.5-48.9 55.4-64l10.8-7.1-2.8-2.3c-11.2-9.3-23.6-20.8-30.2-28.1-40.2-44.3-63.2-92.1-72.8-151.6-2.6-15.9-2.6-64.1 0-80.5 9.1-57.8 34.4-110.5 72.5-151.1l8.1-8.6 6.4-25.9c3.5-14.2 6.3-26 6.3-26-.1-.1-5.1 3.2-11.3 7.5zM434.5 264.6c-1.1.2-4.5.9-7.5 1.5-16.3 3.3-31.8 17.8-37 34.7-1.4 4.3-2 9.3-2 15.1 0 14.6 4.1 24.8 14.1 35.6 7.5 8 18.1 13.7 29.1 15.5 30.5 5.3 59.8-19.7 59.8-51 0-22.3-15.9-43.5-37-49.3-6-1.7-16.3-2.8-19.5-2.1zm19 36.9c5.2 5.1 1.6 14.5-5.4 14.5-7.7 0-11.5-9.7-5.7-14.6 3.6-3.1 8-3.1 11.1.1zm-26.1 17.8c2.2 1.6 1.8 5.5-.6 7.1-4 2.4-8-4.4-4.2-7.1 1-.7 2.1-1.3 2.4-1.3.3 0 1.4.6 2.4 1.3zM242.4 295.5c-4.8 1-13.3 4.4-15.2 6-.5.4 8.8 14.9 12.2 19 1.8 2.2 5.7 5.3 8.7 7 4.5 2.4 6.8 3 14 3.3 9.8.5 12.8-.5 25.5-8.4l7.4-4.6-1.8-3c-4.7-8.1-18.2-16.9-30.1-19.4-8-1.7-12.7-1.7-20.7.1zm32 6c5.5 5.1 1.9 14.5-5.7 14.5-6.1 0-10.1-6.2-7.7-11.9 2.2-5.3 9-6.7 13.4-2.6zM252.5 318c.9 1.5-.4 4.7-2.2 5.4-4.6 1.8-8.1-3.5-4.3-6.6 2.2-1.8 5-1.3 6.5 1.2zM340.5 334.4c-6.7 1.6-14.5 6-18.8 10.5-5.5 5.7-49.8 71.9-52.4 78.3-7.8 19 .1 41.1 18.1 50.6 4.6 2.4 6.2 2.7 15.4 2.7 8.9 0 10.2.2 10.2 1.7 0 2.5 7.6 8.5 15.5 12.3 13.9 6.7 29 6.7 43 0 7.2-3.4 16.5-10.7 16.5-12.8 0-.8 3-1.2 9.8-1.2 8.6 0 10.3-.3 14.8-2.7 17.9-9.4 25.8-31.6 18.1-50.7-2.6-6.3-47-72.5-52.5-78.3-6.4-6.8-19.2-11.9-29-11.7-2 0-5.9.6-8.7 1.3z"/></svg>